<?xml version="1.0" standalone="no"?>
<svg version="1.0" xmlns="http://www.w3.org/2000/svg"
 width="180" height="180" viewBox="0 0 1920 1920"
 preserveAspectRatio="xMidYMid meet">
<g transform="translate(0,1920) scale(0.1,-0.1)" fill="#000000" stroke="none">
<path d="M6060 13893 c0 -25 84 -285 137 -418 130 -330 300 -593 553 -858 51
-54 90 -100 87 -103 -18 -19 -556 116 -842 211 -713 236 -1283 566 -1795 1038
-69 63 -126 114 -128 112 -7 -6 140 -254 233 -395 182 -273 349 -474 592 -711
504 -491 1133 -891 1967 -1250 122 -52 173 -79 160 -83 -27 -8 -363 -71 -539
-100 -399 -67 -655 -90 -995 -90 -263 0 -444 13 -619 44 -30 6 -57 7 -60 4 -7
-7 194 -202 325 -314 269 -231 568 -427 896 -588 76 -37 138 -69 138 -72 0 -3
-27 -20 -60 -39 -578 -317 -955 -846 -1067 -1496 -24 -139 -24 -511 -1 -644 9
-51 19 -95 22 -98 2 -3 98 62 213 144 286 205 433 306 439 301 2 -3 -14 -30
-37 -62 -82 -115 -160 -297 -195 -458 -22 -101 -30 -333 -15 -455 48 -386 216
-789 468 -1124 134 -178 414 -453 758 -744 176 -148 233 -188 414 -284 98 -52
137 -68 142 -59 10 16 -7 43 -98 148 -614 715 -961 1682 -894 2490 48 574 238
1072 586 1537 175 233 346 408 588 601 221 177 564 377 796 464 75 28 136 53
136 56 0 8 -204 -41 -355 -85 -387 -114 -693 -276 -980 -518 -311 -263 -583
-635 -750 -1027 -67 -156 -138 -378 -151 -470 l-7 -50 49 95 c183 351 456 688
748 925 320 260 703 458 1151 596 195 60 567 149 585 140 11 -6 -37 -47 -175
-149 -313 -232 -578 -507 -775 -804 -93 -140 -201 -344 -248 -468 -23 -61 -40
-113 -38 -115 6 -6 134 176 206 293 181 292 431 572 708 794 304 243 698 461
1079 597 139 50 381 124 394 121 4 -1 -30 -33 -75 -71 -396 -333 -735 -759
-979 -1230 -81 -157 -179 -392 -212 -510 -23 -82 -25 -105 -25 -275 0 -170 2
-193 25 -275 33 -118 131 -353 212 -510 244 -471 583 -897 979 -1230 45 -38
79 -70 75 -71 -13 3 -255 -71 -394 -121 -381 -136 -775 -354 -1079 -597 -277
-222 -527 -502 -708 -794 -72 -117 -200 -299 -206 -293 -2 2 15 54 38 115 47
124 155 328 248 468 197 297 462 572 775 804 138 102 186 143 175 149 -18 9
-390 -80 -585 -140 -448 -138 -831 -336 -1151 -596 -292 -237 -565 -574 -748
-925 l-49 -95 7 50 c13 92 84 314 151 470 167 392 439 764 750 1027 287 242
593 404 980 518 151 44 355 93 355 85 0 -3 -61 -28 -136 -56 -232 -87 -575
-287 -796 -464 -242 -193 -413 -368 -588 -601 -348 -465 -538 -963 -586 -1537
-67 -808 280 -1775 894 -2490 91 -105 108 -132 98 -148 -5 -9 -44 7 -142 59
-181 96 -238 136 -414 284 -344 291 -624 566 -758 744 -252 335 -420 738 -468
1124 -15 122 -7 354 15 455 35 161 113 343 195 458 23 32 39 59 37 62 -6 5
-153 -96 -439 -301 -115 -82 -211 -147 -213 -144 -3 3 -13 47 -22 98 -23 133
-23 505 1 644 112 650 489 1179 1067 1496 33 19 60 36 60 39 0 3 -62 35 -138
72 -328 161 -627 357 -896 588 -131 112 -332 307 -325 314 3 -3 30 2 60 -4
175 -31 356 -44 619 -44 340 0 596 23 995 90 176 29 512 92 539 100 13 4 -38
31 -160 83 -834 359 -1463 759 -1967 1250 -243 237 -410 438 -592 711 -93 141
-240 389 -233 395 2 -2 59 -49 128 -112 512 -472 1082 -802 1795 -1038 286
-95 824 -230 842 -211 3 3 -36 49 -87 103 -253 265 -423 528 -553 858 -53 133
-137 393 -137 418z"/>
<path d="M14834 12005 c13 -44 25 -128 31 -212 13 -185 -44 -353 -157 -464
l-61 -59 59 -27 c83 -39 185 -44 249 -13 88 43 173 180 182 293 l4 62 -36 -70
c-55 -108 -113 -157 -165 -140 -30 9 -33 55 -14 207 19 164 14 265 -17 337
-21 51 -87 125 -75 86z"/>
<path d="M6882 8675 c-97 -328 -134 -776 -92 -1115 35 -280 131 -565 260 -775
142 -231 418 -522 660 -695 234 -168 487 -266 787 -305 134 -18 475 -20 674
-5 125 10 552 57 574 64 5 1 -42 10 -105 20 -646 98 -1297 377 -1743 748 -115
95 -303 285 -389 393 -350 437 -542 940 -602 1575 -12 129 -13 133 -24 95z"/>
<path d="M8309 8398 c-176 -274 -246 -491 -236 -738 8 -214 66 -356 226 -554
150 -185 461 -392 774 -515 58 -22 109 -41 114 -41 4 0 -39 26 -97 58 -476
262 -744 581 -833 992 -30 137 -29 374 2 520 21 99 68 249 105 333 9 20 14 37
11 37 -3 0 -33 -42 -66 -92z"/>
</g>
</svg>
