<?xml version="1.0" standalone="no"?>
<!DOCTYPE svg PUBLIC "-//W3C//DTD SVG 20010904//EN"
 "http://www.w3.org/TR/2001/REC-SVG-20010904/DTD/svg10.dtd">
<svg version="1.0" xmlns="http://www.w3.org/2000/svg"
 width="1920.000000pt" height="1920.000000pt" viewBox="0 0 1920.000000 1920.000000"
 preserveAspectRatio="xMidYMid meet">

<g transform="translate(0.000000,1920.000000) scale(0.100000,-0.100000)"
fill="#000000" stroke="none">
<path d="M6060 13893 c0 -25 84 -285 137 -418 130 -330 300 -593 553 -858 51
-54 90 -100 87 -103 -18 -19 -556 116 -842 211 -713 236 -1283 566 -1795 1038
-69 63 -126 114 -128 112 -7 -6 140 -254 233 -395 182 -273 349 -474 592 -711
504 -491 1133 -891 1967 -1250 122 -52 173 -79 160 -83 -27 -8 -363 -71 -539
-100 -399 -67 -655 -90 -995 -90 -263 0 -444 13 -619 44 -30 6 -57 7 -60 4 -7
-7 194 -202 325 -314 269 -231 568 -427 896 -588 76 -37 138 -69 138 -72 0 -3
-27 -20 -60 -39 -578 -317 -955 -846 -1067 -1496 -24 -139 -24 -511 -1 -644 9
-51 19 -95 22 -98 2 -3 98 62 213 144 286 205 433 306 439 301 2 -3 -14 -30
-37 -62 -82 -115 -160 -297 -195 -458 -22 -101 -30 -333 -15 -455 48 -386 216
-789 468 -1124 134 -178 414 -453 758 -744 176 -148 233 -188 414 -284 98 -52
137 -68 142 -59 10 16 -7 43 -98 148 -614 715 -961 1682 -894 2490 48 574 238
1036 566 1378 253 265 543 437 969 577 144 48 789 215 828 215 41 0 14 -40
-160 -241 -368 -425 -575 -701 -763 -1017 -72 -121 -104 -192 -167 -369 -29
-81 -37 -114 -29 -122 6 -6 14 -11 18 -11 3 0 46 41 95 91 109 112 336 320
465 426 400 330 823 547 1198 615 91 16 157 20 306 20 229 0 322 -13 565 -83
249 -71 870 -272 870 -281 0 -5 -45 -73 -100 -153 -55 -79 -103 -151 -106
-160 -12 -29 389 166 559 273 99 62 222 152 270 197 62 59 61 55 68 355 5 209
10 289 23 334 9 32 19 63 22 67 14 23 -28 4 -88 -41 -76 -56 -117 -107 -158
-196 -36 -80 -57 -94 -140 -94 -92 0 -165 37 -200 100 -23 41 -25 55 -23 153
1 59 0 107 -2 107 -2 0 -40 -48 -85 -106 -90 -116 -129 -147 -175 -140 -100
15 -315 136 -452 255 -121 104 -324 361 -344 436 -15 52 16 111 103 198 168
167 329 244 730 347 l227 58 6 -52 c3 -28 12 -125 21 -216 13 -151 18 -181 27
-169 22 28 98 161 152 264 37 72 76 142 86 157 26 36 96 68 150 68 49 0 319
-37 327 -45 3 -2 -27 -63 -67 -135 -39 -71 -71 -132 -71 -136 0 -9 150 153
199 215 57 73 109 182 122 257 7 41 8 127 2 267 l-9 205 -37 74 c-20 40 -73
122 -117 181 -71 95 -88 112 -137 134 -52 24 -62 25 -151 19 -53 -4 -110 -13
-127 -21 -37 -16 -86 -68 -111 -117 -21 -40 -95 -103 -162 -137 -35 -18 -71
-24 -180 -31 -76 -5 -167 -13 -203 -19 -205 -33 -353 -30 -432 10 -23 12 -116
94 -207 183 -185 181 -313 296 -350 316 -31 17 -119 15 -305 -4 -271 -29 -516
-38 -860 -33 -419 5 -608 29 -884 108 -275 79 -674 288 -896 469 -142 116
-490 484 -655 694 -189 240 -219 275 -220 259z m3030 -2146 l85 -31 340 -8
c262 -6 379 -13 510 -30 l170 -23 -62 -38 c-292 -178 -581 -231 -788 -144
-116 48 -279 180 -355 288 -22 29 -22 32 -4 24 10 -5 57 -22 104 -38z"/>
<path d="M14287 13105 c-18 -59 -29 -165 -23 -224 10 -100 50 -174 137 -251
96 -86 131 -157 137 -282 3 -59 -1 -111 -13 -163 -9 -42 -15 -78 -13 -81 9 -8
107 68 155 120 61 66 78 126 71 246 -8 134 -56 205 -225 331 -121 92 -161 142
-194 243 -19 56 -28 74 -32 61z"/>
<path d="M14136 12001 c46 -123 60 -210 45 -282 -24 -112 -95 -186 -222 -230
-50 -17 -101 -23 -229 -30 -247 -12 -377 -45 -499 -125 -128 -85 -200 -176
-291 -369 -92 -196 -173 -295 -315 -389 -133 -89 -255 -131 -560 -192 -115
-23 -203 -44 -195 -47 8 -3 49 -10 90 -17 182 -30 381 -104 695 -260 339 -168
439 -195 720 -195 164 1 190 3 288 28 186 48 328 119 460 228 194 161 331 381
368 587 12 73 12 73 -13 99 l-26 25 -12 -36 c-16 -51 -52 -90 -118 -130 -159
-96 -356 -90 -475 14 -104 92 -115 210 -28 297 17 18 106 72 198 120 178 93
254 152 300 230 56 97 84 247 63 349 -28 138 -105 280 -196 364 -80 72 -87 66
-48 -39z"/>
<path d="M14834 12005 c13 -44 25 -128 31 -212 13 -185 -44 -353 -157 -464
l-61 -59 59 -27 c83 -39 185 -44 249 -13 88 43 173 180 182 293 l4 62 -36 -70
c-55 -108 -113 -157 -165 -140 -30 9 -33 55 -14 207 19 164 14 265 -17 337
-21 51 -87 125 -75 86z"/>
<path d="M6882 8675 c-97 -328 -134 -776 -92 -1115 35 -280 131 -565 260 -775
142 -231 418 -522 660 -695 234 -168 487 -266 787 -305 134 -18 475 -20 674
-5 125 10 552 57 574 64 5 1 -42 10 -105 20 -646 98 -1297 377 -1743 748 -115
95 -303 285 -389 393 -350 437 -542 940 -602 1575 -12 129 -13 133 -24 95z"/>
<path d="M8309 8398 c-176 -274 -246 -491 -236 -738 8 -214 66 -356 226 -554
150 -185 461 -392 774 -515 58 -22 109 -41 114 -41 4 0 -39 26 -97 58 -476
262 -744 581 -833 992 -30 137 -29 374 2 520 21 99 68 249 105 333 9 20 14 37
11 37 -3 0 -33 -42 -66 -92z"/>
</g>
</svg>
